# xmcd
#
# Track frame offsets:
#	183
#	12740
#	25148
#	37570
#	53073
#	64398
#	77425
#	89985
#	102323
#	113845
#	127243
#	138185
#	153135
#	169835
#	184755
#	196015
#	208470
#	225253
#	237760
#	259758
#	279610
#
# Disc length: 3984
#
# Revision: 1
# Processed by: cddbd v1.5.1PL0 Copyright (c) Steve Scherf et al.
# Submitted via: CDex 1.50beta9
# Normalized: r0:TDELIM( - )
#
DISCID=1f0f8e15
DTITLE=Various Artist - Gipsy Jazz
DYEAR=1995
DGENRE=Jazz
TTITLE0=Quintet of the Hot Club of France - Limehouse Blues
TTITLE1=Quintet of the Hot Club of France - Sweet Chorus
TTITLE2=Quintet of the Hot Club of France - Rose Room
TTITLE3=Quintet of the Hot Club of France - Chicago
TTITLE4=The Rosenberg Trio - I'll See You In My Dreams
TTITLE5=The Rosenberg Trio - Insensiblement
TTITLE6=The Rosenberg Trio - Honeysuckle Rose
TTITLE7=The Rosenberg Trio - Groovin' High
TTITLE8=The Rosenberg Trio - Anouman
TTITLE9=The Rosenberg Trio - Minor Blues
TTITLE10=The Rosenberg Trio - Undecided
TTITLE11=Fapy Lafertin Quartet - J'attendral
TTITLE12=Fapy Lafertin Quartet - Melodie Au Crepuscule
TTITLE13=Fapy Lafertin Quartet - Take The "A" Train
TTITLE14=The Gipsy Boys - Hanchi Swing
TTITLE15=The Gipsy Boys - Caravan
TTITLE16=The Gipsy Boys - I'm In The Mood For Love
TTITLE17=The Gipsy Boys - Django's Theme
TTITLE18=The Stephane Grappelli Trio - Do You Know What It Means To Miss New Orleans
TTITLE19=The Stephane Grappelli Trio - Nuages - Daphne
TTITLE20=The Stephane Grappelli Trio - Ol' Man River
EXTD=YEAR: 1995
EXTT0=
EXTT1=
EXTT2=
EXTT3=
EXTT4=
EXTT5=
EXTT6=
EXTT7=
EXTT8=
EXTT9=
EXTT10=
EXTT11=
EXTT12=
EXTT13=
EXTT14=
EXTT15=
EXTT16=
EXTT17=
EXTT18=
EXTT19=
EXTT20=
PLAYORDER=
